<?xml version="1.0" encoding="UTF-8" standalone="no"?>
<svg
   xmlns:dc="http://purl.org/dc/elements/1.1/"
   xmlns:cc="http://creativecommons.org/ns#"
   xmlns:rdf="http://www.w3.org/1999/02/22-rdf-syntax-ns#"
   xmlns:svg="http://www.w3.org/2000/svg"
   xmlns="http://www.w3.org/2000/svg"
   viewBox="0 0 93.333336 120"
   height="120"
   width="93.333336"
   xml:space="preserve"
   id="svg2"
   version="1.1"><metadata
     id="metadata8"><rdf:RDF><cc:Work
         rdf:about=""><dc:format>image/svg+xml</dc:format><dc:type
           rdf:resource="http://purl.org/dc/dcmitype/StillImage" /></cc:Work></rdf:RDF></metadata><defs
     id="defs6"><clipPath
       id="clipPath18"
       clipPathUnits="userSpaceOnUse"><path
         id="path16"
         d="M 0,90 H 70 V 0 H 0 Z" /></clipPath></defs><g
     transform="matrix(1.3333333,0,0,-1.3333333,0,120)"
     id="g10"><g
       id="g12"><g
         clip-path="url(#clipPath18)"
         id="g14"><g
           transform="translate(65,65)"
           id="g20"><path
             id="path22"
             style="fill:#ffffff;fill-opacity:1;fill-rule:nonzero;stroke:#ffffff"
             d="M 0,0 V -60 H -60 V 0 h 15 v -7.5 c 0,-1.381 1.119,-2.5 2.5,-2.5 1.381,0 2.5,1.119 2.5,2.5 V 0 h 20 v -7.5 c 0,-1.381 1.119,-2.5 2.5,-2.5 1.381,0 2.5,1.119 2.5,2.5 V 0 Z m -40,10 c 0,5.514 4.486,10 10,10 5.514,0 10,-4.486 10,-10 V 5 h -20 z m 10,15 c -8.271,0 -15,-6.729 -15,-15 V 5 H -62.5 C -63.881,5 -65,3.881 -65,2.5 v -65 c 0,-1.381 1.119,-2.5 2.5,-2.5 h 65 c 1.381,0 2.5,1.119 2.5,2.5 v 65 C 5,3.881 3.881,5 2.5,5 H -15 v 5 c 0,8.271 -6.729,15 -15,15" /></g></g></g></g></svg>
