<?xml version="1.0" encoding="UTF-8" standalone="no"?>
<svg
   xmlns:dc="http://purl.org/dc/elements/1.1/"
   xmlns:cc="http://creativecommons.org/ns#"
   xmlns:rdf="http://www.w3.org/1999/02/22-rdf-syntax-ns#"
   xmlns:svg="http://www.w3.org/2000/svg"
   xmlns="http://www.w3.org/2000/svg"
   viewBox="0 0 120 120"
   height="120"
   width="120"
   xml:space="preserve"
   id="svg2"
   version="1.1"><metadata
     id="metadata8"><rdf:RDF><cc:Work
         rdf:about=""><dc:format>image/svg+xml</dc:format><dc:type
           rdf:resource="http://purl.org/dc/dcmitype/StillImage" /></cc:Work></rdf:RDF></metadata><defs
     id="defs6"><clipPath
       id="clipPath18"
       clipPathUnits="userSpaceOnUse"><path
         id="path16"
         d="M 0,90 H 90 V 0 H 0 Z" /></clipPath></defs><g
     transform="matrix(1.3333333,0,0,-1.3333333,0,120)"
     id="g10"><g
       id="g12"><g
         clip-path="url(#clipPath18)"
         id="g14"><g
           transform="translate(68.0996,36.0996)"
           id="g20"><path
             id="path22"
             style="fill:#000000;fill-opacity:1;fill-rule:nonzero;stroke:none"
             d="m 0,0 c -0.3,0.4 -1,0.7 -2.1,1.301 -1.099,0.5 -6.4,3.099 -7.4,3.5 -1,0.399 -1.699,0.5 -2.399,-0.5 -0.701,-1.101 -2.8,-3.5 -3.401,-4.2 -0.599,-0.701 -1.3,-0.8 -2.3,-0.3 -1.099,0.5 -4.6,1.699 -8.7,5.3 -3.2,2.799 -5.4,6.399 -6,7.399 -0.599,1.101 -0.099,1.7 0.5,2.2 0.5,0.5 1.1,1.3 1.6,1.901 0.5,0.599 0.7,1.099 1.1,1.799 0.4,0.701 0.201,1.3 -0.1,1.9 -0.3,0.5 -2.4,5.801 -3.3,8 -0.899,2.1 -1.8,1.801 -2.399,1.801 -0.601,0 -1.401,0.099 -2.101,0.099 -0.7,0 -1.899,-0.3 -2.899,-1.3 -1,-1.1 -3.801,-3.7 -3.801,-9 0,-5.299 3.9,-10.4 4.4,-11.1 0.5,-0.699 7.5,-11.9 18.5,-16.199 11,-4.3 11,-2.901 13,-2.701 2,0.201 6.401,2.6 7.3,5.1 0.801,2.4 0.801,4.5 0.5,5 m -22.3,46.9 c -20.5,0 -37.099,-16.5 -37.099,-36.799 0,-8.101 2.599,-15.5 7.099,-21.601 l -4.599,-13.699 14.299,4.5 c 5.9,-3.901 12.9,-6.101 20.4,-6.101 20.4,0 37.1,16.5 37.1,36.901 C 14.9,30.5 -1.8,46.9 -22.3,46.9 M 21.9,10.101 c 0,-24.201 -19.799,-43.8 -44.2,-43.8 -7.7,0 -15,2 -21.4,5.5 l -24.4,-7.901 8,23.5 C -64.1,-6 -66.399,1.801 -66.399,10 -66.5,34.3 -46.7,53.9 -22.3,53.9 2.101,53.9 21.9,34.3 21.9,10.101" /></g></g></g></g></svg>