<?xml version="1.0" encoding="UTF-8" standalone="no"?>
<svg
   xmlns:dc="http://purl.org/dc/elements/1.1/"
   xmlns:cc="http://creativecommons.org/ns#"
   xmlns:rdf="http://www.w3.org/1999/02/22-rdf-syntax-ns#"
   xmlns:svg="http://www.w3.org/2000/svg"
   xmlns="http://www.w3.org/2000/svg"
   viewBox="0 0 17.072933 23.277866"
   height="23.277866"
   width="17.072933"
   xml:space="preserve"
   id="svg2"
   version="1.1"><metadata
     id="metadata8"><rdf:RDF><cc:Work
         rdf:about=""><dc:format>image/svg+xml</dc:format><dc:type
           rdf:resource="http://purl.org/dc/dcmitype/StillImage" /></cc:Work></rdf:RDF></metadata><defs
     id="defs6"><clipPath
       id="clipPath18"
       clipPathUnits="userSpaceOnUse"><path
         id="path16"
         d="M 0,17.458 H 12.805 V 0 H 0 Z" /></clipPath></defs><g
     transform="matrix(1.3333333,0,0,-1.3333333,0,23.277867)"
     id="g10"><g
       id="g12"><g
         clip-path="url(#clipPath18)"
         id="g14"><g
           transform="translate(9.084,7.4662)"
           id="g20"><path
             id="path22"
             style="fill:#c1a067;fill-opacity:1;fill-rule:nonzero;stroke:none"
             d="m 0,0 c -0.846,-0.733 -1.498,-1.681 -1.867,-2.76 -0.063,-0.008 -0.125,-0.015 -0.188,-0.021 -0.201,-0.02 -0.408,-0.031 -0.615,-0.031 -0.213,0 -0.424,0.01 -0.631,0.031 -0.06,0.006 -0.123,0.013 -0.183,0.02 -0.401,1.144 -1.116,2.143 -2.041,2.889 V 0.13 C -6.521,0.95 -7.16,2.193 -7.164,3.583 -7.168,6.054 -5.16,8.068 -2.688,8.072 -0.217,8.077 1.799,6.069 1.801,3.598 1.805,2.265 1.223,1.066 0.297,0.242 0.201,0.158 0.104,0.076 0,0 M -2.691,9.992 C -6.221,9.986 -9.088,7.11 -9.084,3.58 c 0.002,-0.73 0.127,-1.434 0.355,-2.089 0.399,-1.145 1.114,-2.143 2.04,-2.888 0.841,-0.693 1.425,-1.684 1.589,-2.811 h 0.002 c 0.008,-0.083 0.065,-0.152 0.139,-0.179 0.002,-0.001 0.006,-0.001 0.008,-0.002 0.006,-0.002 0.012,-0.003 0.015,-0.004 0.579,-0.163 1.182,-0.266 1.803,-0.3 0.154,-0.008 0.309,-0.012 0.465,-0.012 0.152,0 0.305,0.005 0.455,0.014 0.625,0.034 1.233,0.138 1.815,0.305 h 0.002 v 0.001 c 0.07,0.023 0.126,0.083 0.144,0.156 0,0.012 0.002,0.023 0.002,0.032 0.154,1.07 0.689,2.02 1.461,2.707 0.096,0.085 0.195,0.168 0.301,0.244 0.842,0.732 1.492,1.681 1.863,2.758 C 3.602,2.168 3.723,2.871 3.721,3.601 3.715,7.13 0.838,9.998 -2.691,9.992" /></g><g
           transform="translate(8.5879,11.7865)"
           id="g24"><path
             id="path26"
             style="fill:#c1a067;fill-opacity:1;fill-rule:nonzero;stroke:none"
             d="m 0,0 c -0.406,0 -0.734,-0.314 -0.766,-0.711 v -0.017 c 0,-0.023 0,-0.048 -0.002,-0.07 V -0.8 c -0.037,-0.75 -0.658,-1.348 -1.416,-1.348 -0.765,-0.002 -1.394,0.609 -1.42,1.371 v 0.016 c -0.007,0.416 -0.349,0.751 -0.769,0.749 -0.422,0 -0.766,-0.344 -0.766,-0.768 0.026,-1.608 1.346,-2.907 2.959,-2.905 1.6,0.004 2.903,1.282 2.95,2.872 v 0.012 0.048 C 0.762,-0.334 0.42,0.001 0,0" /></g><g
           transform="translate(8.7148,2.369)"
           id="g28"><path
             id="path30"
             style="fill:#c1a067;fill-opacity:1;fill-rule:nonzero;stroke:none"
             d="m 0,0 c -0.006,0 -0.012,0 -0.016,-0.002 0,0 -0.005,-0.001 -0.005,-0.002 -0.583,-0.151 -1.182,-0.248 -1.801,-0.281 -0.157,-0.008 -0.317,-0.013 -0.473,-0.013 -0.164,0 -0.328,0.003 -0.488,0.012 -0.621,0.031 -1.225,0.127 -1.805,0.28 -0.002,0 -0.006,0.002 -0.01,0.002 -0.006,0.001 -0.009,0.002 -0.015,0.002 -0.039,0 -0.071,-0.031 -0.076,-0.067 0,-0.009 0,-0.017 0.002,-0.026 v -0.001 c 0.042,-0.939 0.628,-1.737 1.451,-2.085 0.287,-0.122 0.601,-0.188 0.933,-0.188 0.332,0.001 0.649,0.07 0.938,0.193 0.822,0.353 1.402,1.154 1.439,2.093 0.002,0.003 0.002,0.005 0.002,0.007 v 0.003 C 0.074,-0.033 0.041,0 0,0" /></g></g></g></g></svg>
