<?xml version="1.0" encoding="UTF-8" standalone="no"?>
<svg
   xmlns:dc="http://purl.org/dc/elements/1.1/"
   xmlns:cc="http://creativecommons.org/ns#"
   xmlns:rdf="http://www.w3.org/1999/02/22-rdf-syntax-ns#"
   xmlns:svg="http://www.w3.org/2000/svg"
   xmlns="http://www.w3.org/2000/svg"
   viewBox="0 0 734.71198 734.71198"
   height="734.71198"
   width="734.71198"
   xml:space="preserve"
   id="svg2"
   version="1.1"><metadata
     id="metadata8"><rdf:RDF><cc:Work
         rdf:about=""><dc:format>image/svg+xml</dc:format><dc:type
           rdf:resource="http://purl.org/dc/dcmitype/StillImage" /></cc:Work></rdf:RDF></metadata><defs
     id="defs6"><linearGradient
       id="linearGradient32"
       spreadMethod="pad"
       gradientTransform="matrix(0,545.1488,545.1488,0,275.517,1.6053967)"
       gradientUnits="userSpaceOnUse"
       y2="0"
       x2="1"
       y1="0"
       x1="0"><stop
         id="stop24"
         offset="0"
         style="stop-opacity:1;stop-color:#e09b3d" /><stop
         id="stop26"
         offset="0.3"
         style="stop-opacity:1;stop-color:#c74c4d" /><stop
         id="stop28"
         offset="0.6"
         style="stop-opacity:1;stop-color:#c21975" /><stop
         id="stop30"
         offset="1"
         style="stop-opacity:1;stop-color:#7024c4" /></linearGradient><linearGradient
       id="linearGradient56"
       spreadMethod="pad"
       gradientTransform="matrix(0,545.1488,545.1488,0,275.517,1.6053967)"
       gradientUnits="userSpaceOnUse"
       y2="0"
       x2="1"
       y1="0"
       x1="0"><stop
         id="stop48"
         offset="0"
         style="stop-opacity:1;stop-color:#e09b3d" /><stop
         id="stop50"
         offset="0.3"
         style="stop-opacity:1;stop-color:#c74c4d" /><stop
         id="stop52"
         offset="0.6"
         style="stop-opacity:1;stop-color:#c21975" /><stop
         id="stop54"
         offset="1"
         style="stop-opacity:1;stop-color:#7024c4" /></linearGradient><linearGradient
       id="linearGradient80"
       spreadMethod="pad"
       gradientTransform="matrix(0,545.1488,545.1488,0,418.306,1.6053967)"
       gradientUnits="userSpaceOnUse"
       y2="0"
       x2="1"
       y1="0"
       x1="0"><stop
         id="stop72"
         offset="0"
         style="stop-opacity:1;stop-color:#e09b3d" /><stop
         id="stop74"
         offset="0.3"
         style="stop-opacity:1;stop-color:#c74c4d" /><stop
         id="stop76"
         offset="0.6"
         style="stop-opacity:1;stop-color:#c21975" /><stop
         id="stop78"
         offset="1"
         style="stop-opacity:1;stop-color:#7024c4" /></linearGradient></defs><g
     transform="matrix(1.3333333,0,0,-1.3333333,0,734.712)"
     id="g10"><g
       id="g12"><g
         id="g14"><g
           id="g20"><g
             id="g22"><path
               id="path34"
               style="fill:url(#linearGradient32);stroke:none"
               d="M 164.156,551.034 C 73.64,551.034 0,477.394 0,386.878 v 0 -222.722 C 0,73.641 73.64,0 164.156,0 v 0 h 222.722 c 90.515,0 164.156,73.641 164.156,164.156 v 0 222.722 c -10e-4,90.516 -73.642,164.156 -164.156,164.156 v 0 z M 55.434,164.156 v 222.722 c 0,60.046 48.677,108.722 108.722,108.722 v 0 h 222.722 c 60.045,0 108.721,-48.676 108.721,-108.722 v 0 -222.722 c 0,-60.045 -48.676,-108.721 -108.721,-108.721 v 0 H 164.156 c -60.045,0 -108.722,48.676 -108.722,108.721" /></g></g></g></g><g
       id="g36"><g
         id="g38"><g
           id="g44"><g
             id="g46"><path
               id="path58"
               style="fill:url(#linearGradient56);stroke:none"
               d="m 133,275.518 c 0,-78.583 63.934,-142.517 142.517,-142.517 v 0 c 78.583,0 142.517,63.933 142.517,142.517 v 0 c 0,78.584 -63.934,142.516 -142.517,142.516 v 0 C 196.934,418.034 133,354.1 133,275.518 m 55.434,-10e-4 c 0,48.095 38.989,87.083 87.083,87.083 v 0 c 48.095,0 87.082,-38.988 87.082,-87.083 v 0 c 0,-48.094 -38.988,-87.082 -87.082,-87.082 v 0 c -48.095,0 -87.083,38.987 -87.083,87.082" /></g></g></g></g><g
       id="g60"><g
         id="g62"><g
           id="g68"><g
             id="g70"><path
               id="path82"
               style="fill:url(#linearGradient80);stroke:none"
               d="m 384.157,416.962 c 0,-18.86 15.289,-34.149 34.149,-34.149 v 0 c 18.86,0 34.149,15.289 34.149,34.149 v 0 c 0,18.86 -15.289,34.149 -34.149,34.149 v 0 c -18.86,0 -34.149,-15.289 -34.149,-34.149" /></g></g></g></g></g></svg>