<?xml version="1.0" encoding="UTF-8" standalone="no"?>
<svg
   xmlns:dc="http://purl.org/dc/elements/1.1/"
   xmlns:cc="http://creativecommons.org/ns#"
   xmlns:rdf="http://www.w3.org/1999/02/22-rdf-syntax-ns#"
   xmlns:svg="http://www.w3.org/2000/svg"
   xmlns="http://www.w3.org/2000/svg"
   viewBox="0 0 315.716 176.76933"
   height="176.76933"
   width="315.716"
   xml:space="preserve"
   id="svg2"
   version="1.1"><metadata
     id="metadata8"><rdf:RDF><cc:Work
         rdf:about=""><dc:format>image/svg+xml</dc:format><dc:type
           rdf:resource="http://purl.org/dc/dcmitype/StillImage" /></cc:Work></rdf:RDF></metadata><defs
     id="defs6"><linearGradient
       id="linearGradient30"
       spreadMethod="pad"
       gradientTransform="matrix(132,74.5,-74.5,132,47.063988,50.520535)"
       gradientUnits="userSpaceOnUse"
       y2="0"
       x2="1"
       y1="0"
       x1="0"><stop
         id="stop24"
         offset="0"
         style="stop-opacity:1;stop-color:#f6921e" /><stop
         id="stop26"
         offset="0.51"
         style="stop-opacity:1;stop-color:#f8cc33" /><stop
         id="stop28"
         offset="1"
         style="stop-opacity:1;stop-color:#f6921e" /></linearGradient><linearGradient
       id="linearGradient52"
       spreadMethod="pad"
       gradientTransform="matrix(132,74.5,-74.5,132,53.834892,38.521217)"
       gradientUnits="userSpaceOnUse"
       y2="0"
       x2="1"
       y1="0"
       x1="0"><stop
         id="stop46"
         offset="0"
         style="stop-opacity:1;stop-color:#f6921e" /><stop
         id="stop48"
         offset="0.51"
         style="stop-opacity:1;stop-color:#f8cc33" /><stop
         id="stop50"
         offset="1"
         style="stop-opacity:1;stop-color:#f6921e" /></linearGradient><linearGradient
       id="linearGradient74"
       spreadMethod="pad"
       gradientTransform="matrix(132,74.5,-74.5,132,51.742706,42.232803)"
       gradientUnits="userSpaceOnUse"
       y2="0"
       x2="1"
       y1="0"
       x1="0"><stop
         id="stop68"
         offset="0"
         style="stop-opacity:1;stop-color:#f6921e" /><stop
         id="stop70"
         offset="0.51"
         style="stop-opacity:1;stop-color:#f8cc33" /><stop
         id="stop72"
         offset="1"
         style="stop-opacity:1;stop-color:#f6921e" /></linearGradient><linearGradient
       id="linearGradient96"
       spreadMethod="pad"
       gradientTransform="matrix(132,74.5,-74.5,132,69.492531,10.787681)"
       gradientUnits="userSpaceOnUse"
       y2="0"
       x2="1"
       y1="0"
       x1="0"><stop
         id="stop90"
         offset="0"
         style="stop-opacity:1;stop-color:#f6921e" /><stop
         id="stop92"
         offset="0.51"
         style="stop-opacity:1;stop-color:#f8cc33" /><stop
         id="stop94"
         offset="1"
         style="stop-opacity:1;stop-color:#f6921e" /></linearGradient><linearGradient
       id="linearGradient118"
       spreadMethod="pad"
       gradientTransform="matrix(132,74.5,-74.5,132,58.311146,30.595568)"
       gradientUnits="userSpaceOnUse"
       y2="0"
       x2="1"
       y1="0"
       x1="0"><stop
         id="stop112"
         offset="0"
         style="stop-opacity:1;stop-color:#f6921e" /><stop
         id="stop114"
         offset="0.51"
         style="stop-opacity:1;stop-color:#f8cc33" /><stop
         id="stop116"
         offset="1"
         style="stop-opacity:1;stop-color:#f6921e" /></linearGradient><linearGradient
       id="linearGradient140"
       spreadMethod="pad"
       gradientTransform="matrix(132,74.5,-74.5,132,76.672562,-1.936941)"
       gradientUnits="userSpaceOnUse"
       y2="0"
       x2="1"
       y1="0"
       x1="0"><stop
         id="stop134"
         offset="0"
         style="stop-opacity:1;stop-color:#f6921e" /><stop
         id="stop136"
         offset="0.51"
         style="stop-opacity:1;stop-color:#f8cc33" /><stop
         id="stop138"
         offset="1"
         style="stop-opacity:1;stop-color:#f6921e" /></linearGradient><linearGradient
       id="linearGradient162"
       spreadMethod="pad"
       gradientTransform="matrix(132,74.5,-74.5,132,40.328632,62.450027)"
       gradientUnits="userSpaceOnUse"
       y2="0"
       x2="1"
       y1="0"
       x1="0"><stop
         id="stop156"
         offset="0"
         style="stop-opacity:1;stop-color:#f6921e" /><stop
         id="stop158"
         offset="0.51"
         style="stop-opacity:1;stop-color:#f8cc33" /><stop
         id="stop160"
         offset="1"
         style="stop-opacity:1;stop-color:#f6921e" /></linearGradient><linearGradient
       id="linearGradient184"
       spreadMethod="pad"
       gradientTransform="matrix(132,74.5,-74.5,132,77.707054,-3.7726181)"
       gradientUnits="userSpaceOnUse"
       y2="0"
       x2="1"
       y1="0"
       x1="0"><stop
         id="stop178"
         offset="0"
         style="stop-opacity:1;stop-color:#f6921e" /><stop
         id="stop180"
         offset="0.51"
         style="stop-opacity:1;stop-color:#f8cc33" /><stop
         id="stop182"
         offset="1"
         style="stop-opacity:1;stop-color:#f6921e" /></linearGradient><linearGradient
       id="linearGradient206"
       spreadMethod="pad"
       gradientTransform="matrix(132,74.5,-74.5,132,35.436954,71.125275)"
       gradientUnits="userSpaceOnUse"
       y2="0"
       x2="1"
       y1="0"
       x1="0"><stop
         id="stop200"
         offset="0"
         style="stop-opacity:1;stop-color:#f6921e" /><stop
         id="stop202"
         offset="0.51"
         style="stop-opacity:1;stop-color:#f8cc33" /><stop
         id="stop204"
         offset="1"
         style="stop-opacity:1;stop-color:#f6921e" /></linearGradient><linearGradient
       id="linearGradient228"
       spreadMethod="pad"
       gradientTransform="matrix(132,74.5,-74.5,132,63.814533,20.849567)"
       gradientUnits="userSpaceOnUse"
       y2="0"
       x2="1"
       y1="0"
       x1="0"><stop
         id="stop222"
         offset="0"
         style="stop-opacity:1;stop-color:#f6921e" /><stop
         id="stop224"
         offset="0.51"
         style="stop-opacity:1;stop-color:#f8cc33" /><stop
         id="stop226"
         offset="1"
         style="stop-opacity:1;stop-color:#f6921e" /></linearGradient><linearGradient
       id="linearGradient250"
       spreadMethod="pad"
       gradientTransform="matrix(132,74.5,-74.5,132,44.338921,55.351799)"
       gradientUnits="userSpaceOnUse"
       y2="0"
       x2="1"
       y1="0"
       x1="0"><stop
         id="stop244"
         offset="0"
         style="stop-opacity:1;stop-color:#f6921e" /><stop
         id="stop246"
         offset="0.51"
         style="stop-opacity:1;stop-color:#f8cc33" /><stop
         id="stop248"
         offset="1"
         style="stop-opacity:1;stop-color:#f6921e" /></linearGradient><linearGradient
       id="linearGradient272"
       spreadMethod="pad"
       gradientTransform="matrix(132,74.5,-74.5,132,76.88266,-2.3071053)"
       gradientUnits="userSpaceOnUse"
       y2="0"
       x2="1"
       y1="0"
       x1="0"><stop
         id="stop266"
         offset="0"
         style="stop-opacity:1;stop-color:#f6921e" /><stop
         id="stop268"
         offset="0.51"
         style="stop-opacity:1;stop-color:#f8cc33" /><stop
         id="stop270"
         offset="1"
         style="stop-opacity:1;stop-color:#f6921e" /></linearGradient><linearGradient
       id="linearGradient294"
       spreadMethod="pad"
       gradientTransform="matrix(132,74.5,-74.5,132,29.946213,80.844307)"
       gradientUnits="userSpaceOnUse"
       y2="0"
       x2="1"
       y1="0"
       x1="0"><stop
         id="stop288"
         offset="0"
         style="stop-opacity:1;stop-color:#f6921e" /><stop
         id="stop290"
         offset="0.51"
         style="stop-opacity:1;stop-color:#f8cc33" /><stop
         id="stop292"
         offset="1"
         style="stop-opacity:1;stop-color:#f6921e" /></linearGradient><linearGradient
       id="linearGradient316"
       spreadMethod="pad"
       gradientTransform="matrix(132,74.5,-74.5,132,52.167397,41.48222)"
       gradientUnits="userSpaceOnUse"
       y2="0"
       x2="1"
       y1="0"
       x1="0"><stop
         id="stop310"
         offset="0"
         style="stop-opacity:1;stop-color:#f6921e" /><stop
         id="stop312"
         offset="0.51"
         style="stop-opacity:1;stop-color:#f8cc33" /><stop
         id="stop314"
         offset="1"
         style="stop-opacity:1;stop-color:#f6921e" /></linearGradient><linearGradient
       id="linearGradient338"
       spreadMethod="pad"
       gradientTransform="matrix(132,74.5,-74.5,132,41.177082,60.955055)"
       gradientUnits="userSpaceOnUse"
       y2="0"
       x2="1"
       y1="0"
       x1="0"><stop
         id="stop332"
         offset="0"
         style="stop-opacity:1;stop-color:#f6921e" /><stop
         id="stop334"
         offset="0.51"
         style="stop-opacity:1;stop-color:#f8cc33" /><stop
         id="stop336"
         offset="1"
         style="stop-opacity:1;stop-color:#f6921e" /></linearGradient><linearGradient
       id="linearGradient360"
       spreadMethod="pad"
       gradientTransform="matrix(132,74.5,-74.5,132,84.668045,-16.101219)"
       gradientUnits="userSpaceOnUse"
       y2="0"
       x2="1"
       y1="0"
       x1="0"><stop
         id="stop354"
         offset="0"
         style="stop-opacity:1;stop-color:#f6921e" /><stop
         id="stop356"
         offset="0.51"
         style="stop-opacity:1;stop-color:#f8cc33" /><stop
         id="stop358"
         offset="1"
         style="stop-opacity:1;stop-color:#f6921e" /></linearGradient><linearGradient
       id="linearGradient382"
       spreadMethod="pad"
       gradientTransform="matrix(132,74.5,-74.5,132,34.595688,72.607529)"
       gradientUnits="userSpaceOnUse"
       y2="0"
       x2="1"
       y1="0"
       x1="0"><stop
         id="stop376"
         offset="0"
         style="stop-opacity:1;stop-color:#f6921e" /><stop
         id="stop378"
         offset="0.51"
         style="stop-opacity:1;stop-color:#f8cc33" /><stop
         id="stop380"
         offset="1"
         style="stop-opacity:1;stop-color:#f6921e" /></linearGradient><linearGradient
       id="linearGradient404"
       spreadMethod="pad"
       gradientTransform="matrix(132,74.5,-74.5,132,48.904339,47.249912)"
       gradientUnits="userSpaceOnUse"
       y2="0"
       x2="1"
       y1="0"
       x1="0"><stop
         id="stop398"
         offset="0"
         style="stop-opacity:1;stop-color:#f6921e" /><stop
         id="stop400"
         offset="0.51"
         style="stop-opacity:1;stop-color:#f8cc33" /><stop
         id="stop402"
         offset="1"
         style="stop-opacity:1;stop-color:#f6921e" /></linearGradient><linearGradient
       id="linearGradient426"
       spreadMethod="pad"
       gradientTransform="matrix(131.99998,74.500008,-74.500008,131.99998,80.358963,-8.473731)"
       gradientUnits="userSpaceOnUse"
       y2="0"
       x2="1"
       y1="0"
       x1="0"><stop
         id="stop420"
         offset="0"
         style="stop-opacity:1;stop-color:#f6921e" /><stop
         id="stop422"
         offset="0.51"
         style="stop-opacity:1;stop-color:#f8cc33" /><stop
         id="stop424"
         offset="1"
         style="stop-opacity:1;stop-color:#f6921e" /></linearGradient></defs><g
     transform="matrix(1.3333333,0,0,-1.3333333,0,176.76933)"
     id="g10"><g
       id="g12"><g
         id="g14"><g
           id="g20"><g
             id="g22"><path
               id="path32"
               style="fill:url(#linearGradient30);stroke:none"
               d="m 94.604,99.722 c -0.553,0 -1,-0.448 -1,-1 v 0 -35.07 c 0,-0.553 0.447,-1 1,-1 v 0 h 13.589 c 0.553,0 1,0.447 1,1 v 0 3.15 c -0.016,0.536 -0.452,0.964 -0.99,0.97 v 0 h -9.09 c -0.209,0 -0.379,0.17 -0.379,0.38 v 0 30.57 c 0,0.552 -0.448,1 -1.001,1 v 0 z" /></g></g></g></g><g
       id="g34"><g
         id="g36"><g
           id="g42"><g
             id="g44"><path
               id="path54"
               style="fill:url(#linearGradient52);stroke:none"
               d="m 113.54,99.828 c -0.145,-0.159 -0.235,-0.362 -0.256,-0.576 v 0 -35.61 c 0,-0.553 0.447,-1 1,-1 v 0 h 3.17 c 0.551,0 1,0.447 1,1 v 0 23.74 c 0.001,0.231 0.191,0.418 0.422,0.417 v 0 c 0.117,-0.002 0.229,-0.051 0.308,-0.137 v 0 l 23.27,-26 c 0.407,-0.374 1.039,-0.345 1.413,0.063 v 0 c 0.145,0.159 0.235,0.362 0.256,0.576 v 0 36.431 c -0.021,0.544 -0.475,0.971 -1.019,0.96 v 0 h -3.15 c -0.553,0 -1,-0.448 -1,-1.001 v 0 -24.47 c -0.002,-0.231 -0.192,-0.418 -0.424,-0.416 v 0 c -0.116,10e-4 -0.228,0.05 -0.307,0.136 v 0 l -23.27,25.95 c -0.191,0.176 -0.433,0.262 -0.674,0.262 v 0 c -0.271,0 -0.541,-0.109 -0.739,-0.325" /></g></g></g></g><g
       id="g56"><g
         id="g58"><g
           id="g64"><g
             id="g66"><path
               id="path76"
               style="fill:url(#linearGradient74);stroke:none"
               d="m 146.954,99.992 c -0.585,-0.749 -0.453,-1.83 0.295,-2.415 v 0 c 0.164,-0.127 0.348,-0.224 0.545,-0.286 v 0 c 10.4,-3.349 17,-9 17,-17.439 v 0 c 0,-14.84 -20.73,-26.88 -46.291,-26.88 v 0 l -0.11,0.01 h -0.19 c -25.56,0 -46.25,12.039 -46.25,26.879 v 0 c 0,8.4 6.64,14.091 17,17.441 v 0 c 0.907,0.284 1.411,1.25 1.126,2.156 v 0 c -0.062,0.196 -0.158,0.381 -0.286,0.544 v 0 c -1.399,1.768 -3.878,2.252 -5.839,1.139 v 0 c -9.311,-5.369 -15.1,-12.919 -15.1,-21.28 v 0 c -0.03,-16.329 22.099,-29.57 49.349,-29.57 v 0 h 0.391 c 27.27,0 49.359,13.241 49.359,29.57 v 0 c 0,8.361 -5.789,15.911 -15.099,21.28 v 0 c -0.718,0.416 -1.508,0.617 -2.289,0.617 v 0 c -1.372,0 -2.718,-0.617 -3.611,-1.766" /></g></g></g></g><g
       id="g78"><g
         id="g80"><g
           id="g86"><g
             id="g88"><path
               id="path98"
               style="fill:url(#linearGradient96);stroke:none"
               d="m 118.393,38.812 c -2.219,0 -4.4,0.08 -6.46,0.25 v 0 c 1.873,-3.57 6.285,-4.947 9.855,-3.076 v 0 c 1.314,0.689 2.387,1.763 3.075,3.076 v 0 c -2.06,-0.17 -4.24,-0.261 -6.47,-0.25" /></g></g></g></g><g
       id="g100"><g
         id="g102"><g
           id="g108"><g
             id="g110"><path
               id="path120"
               style="fill:url(#linearGradient118);stroke:none"
               d="m 62.694,51.402 c -2.611,-3 -3.001,-7.38 -1.261,-7.26 v 0 c 1.741,0.12 2.55,5.57 9.17,3.94 v 0 c 6.621,-1.63 11.67,-9.55 34.77,-9.69 v 0 0.359 c -4.52,0 -20.71,1.501 -32.909,13.7 v 0 c -0.886,0.882 -2.415,1.371 -4.067,1.371 v 0 c -2.04,0 -4.267,-0.746 -5.703,-2.42" /></g></g></g></g><g
       id="g122"><g
         id="g124"><g
           id="g130"><g
             id="g132"><path
               id="path142"
               style="fill:url(#linearGradient140);stroke:none"
               d="m 164.334,52.451 c -12.201,-12.199 -28.39,-13.7 -32.911,-13.7 v 0 -0.359 c 23.101,0.14 28.151,8.06 34.771,9.69 v 0 c 6.619,1.63 7.429,-3.82 9.169,-3.94 v 0 c 1.741,-0.12 1.35,4.26 -1.259,7.26 v 0 c -1.437,1.674 -3.664,2.42 -5.704,2.42 v 0 c -1.652,0 -3.18,-0.489 -4.066,-1.371" /></g></g></g></g><g
       id="g144"><g
         id="g146"><g
           id="g152"><g
             id="g154"><path
               id="path164"
               style="fill:url(#linearGradient162);stroke:none"
               d="m 45.203,72.041 c -4.24,0.018 -7.254,-2.673 -9.646,-5.363 v 0 c -2.765,-3.109 -4.701,-6.22 -6.743,-5.147 v 0 c -1,0.8 -0.22,1.571 -0.37,2.81 v 0 c -0.147,1.205 -1.21,2.084 -2.421,2.001 v 0 c -4.81,-0.25 -5.46,-10.89 3.17,-8.261 v 0 c 8.63,2.62 9.08,9.541 20.001,9.621 v 0 c 4.079,0 8.48,-1.601 12.669,-5.25 v 0 c 0.085,-0.069 0.206,-0.069 0.291,0 v 0 h 0.05 c 0.096,0.09 0.101,0.242 0.01,0.338 v 0 c -0.003,0.004 -0.007,0.008 -0.01,0.011 v 0 c -1.197,1.372 -8.579,9.259 -16.342,9.26 v 0 c -0.219,0 -0.439,-0.007 -0.659,-0.02" /></g></g></g></g><g
       id="g166"><g
         id="g168"><g
           id="g174"><g
             id="g176"><path
               id="path186"
               style="fill:url(#linearGradient184);stroke:none"
               d="m 174.593,62.801 -0.011,-0.011 c -0.091,-0.096 -0.086,-0.248 0.011,-0.338 v 0 h 0.051 c 0.084,-0.069 0.205,-0.069 0.29,0 v 0 c 4.189,3.649 8.589,5.25 12.67,5.25 v 0 c 10.92,-0.08 11.38,-7.001 20,-9.621 v 0 c 8.63,-2.629 7.979,8.011 3.149,8.261 v 0 c -1.21,0.083 -2.273,-0.796 -2.42,-2.001 v 0 c -0.159,-1.239 0.62,-2.01 -0.38,-2.81 v 0 c -2.032,-1.073 -3.961,2.038 -6.721,5.147 v 0 c -2.388,2.69 -5.399,5.381 -9.639,5.363 v 0 c -0.22,0.013 -0.439,0.02 -0.658,0.02 v 0 c -7.764,-0.001 -15.146,-7.888 -16.342,-9.26" /></g></g></g></g><g
       id="g188"><g
         id="g190"><g
           id="g196"><g
             id="g198"><path
               id="path208"
               style="fill:url(#linearGradient206);stroke:none"
               d="m 59.063,73.202 c 0,0 -1.5,1.999 -0.69,7.25 v 0 c -5.089,1.769 -10.27,9.869 4.88,14.69 v 0 c 0.291,0.109 0.291,0.56 -0.21,0.56 v 0 c -18.619,-1.81 -17.92,-19.871 -3.98,-22.5" /></g></g></g></g><g
       id="g210"><g
         id="g212"><g
           id="g218"><g
             id="g220"><path
               id="path230"
               style="fill:url(#linearGradient228);stroke:none"
               d="m 173.553,95.142 c 15.141,-4.821 9.96,-12.921 4.87,-14.69 v 0 c 0.811,-5.251 -0.689,-7.25 -0.689,-7.25 v 0 c 13.929,2.629 14.629,20.69 -3.971,22.5 v 0 c -0.5,0 -0.5,-0.451 -0.21,-0.56" /></g></g></g></g><g
       id="g232"><g
         id="g234"><g
           id="g240"><g
             id="g242"><path
               id="path252"
               style="fill:url(#linearGradient250);stroke:none"
               d="m 39.373,62.321 c -0.19,-3.69 2.14,-5.149 4.31,-5.149 v 0 c 4.34,0 5.66,2.899 9,3.07 v 0 c 1.567,0.079 3.301,-0.73 5.2,-1.54 v 0 c 2.148,-0.917 4.506,-1.832 7.07,-1.46 v 0 c 0.183,0.029 0.318,0.185 0.32,0.37 v 0 0.08 c 0,0.206 -0.163,0.373 -0.369,0.38 v 0 c -7.87,0.08 -8.051,6.31 -15.22,6.789 v 0 c -5.621,0 -7.28,-6.369 -10.311,-2.54" /></g></g></g></g><g
       id="g254"><g
         id="g256"><g
           id="g262"><g
             id="g264"><path
               id="path274"
               style="fill:url(#linearGradient272);stroke:none"
               d="m 171.894,58.072 c -0.206,-0.007 -0.37,-0.174 -0.37,-0.38 v 0 -0.08 c 0.002,-0.185 0.137,-0.341 0.319,-0.37 v 0 c 2.563,-0.372 4.922,0.543 7.07,1.46 v 0 c 1.899,0.81 3.633,1.619 5.201,1.54 v 0 c 3.34,-0.171 4.66,-3.07 9,-3.07 v 0 c 2.17,0 4.5,1.459 4.309,5.149 v 0 c -3.029,-3.829 -4.689,2.54 -10.309,2.54 v 0 c -7.161,-0.479 -7.351,-6.709 -15.22,-6.789" /></g></g></g></g><g
       id="g276"><g
         id="g278"><g
           id="g284"><g
             id="g286"><path
               id="path296"
               style="fill:url(#linearGradient294);stroke:none"
               d="m 80.953,111.532 c -6.18,-2.201 -15.15,-9.851 -16.85,-12 v 0 c -0.489,-0.721 -0.39,-2.101 0.23,-1.5 v 0 c 3.161,3.999 11.48,10 16.86,13.06 v 0 c 0.122,0.066 0.167,0.218 0.1,0.34 v 0 c -0.045,0.083 -0.131,0.13 -0.22,0.13 v 0 c -0.04,0 -0.082,-0.009 -0.12,-0.03" /></g></g></g></g><g
       id="g298"><g
         id="g300"><g
           id="g306"><g
             id="g308"><path
               id="path318"
               style="fill:url(#linearGradient316);stroke:none"
               d="m 155.484,111.411 c -0.056,-0.121 -0.003,-0.265 0.12,-0.319 v 0 c 5.38,-3.06 13.699,-9.061 16.859,-13.06 v 0 c 0.62,-0.601 0.721,0.779 0.19,1.5 v 0 c -1.7,2.14 -10.7,9.789 -16.85,12 v 0 c -0.033,0.014 -0.066,0.021 -0.1,0.021 v 0 c -0.091,0 -0.179,-0.052 -0.219,-0.142" /></g></g></g></g><g
       id="g320"><g
         id="g322"><g
           id="g328"><g
             id="g330"><path
               id="path340"
               style="fill:url(#linearGradient338);stroke:none"
               d="m 0.005,54.52 c 0.018,-0.084 0.084,-0.151 0.169,-0.168 v 0 c 5.259,-0.67 14.57,-1.67 26.72,-2.261 v 0 c 27.499,-1.329 29.27,-0.739 29.27,1.06 v 0 c -0.019,0.919 -3.022,0.645 -8.609,0.37 v 0 C 44.39,53.365 40.395,53.21 35.644,53.272 v 0 c -6.061,0.069 -26.171,0.419 -35.47,1.509 v 0 C 0.055,54.756 -0.021,54.639 0.005,54.52" /></g></g></g></g><g
       id="g342"><g
         id="g344"><g
           id="g350"><g
             id="g352"><path
               id="path362"
               style="fill:url(#linearGradient360);stroke:none"
               d="m 201.144,53.272 c -4.75,-0.062 -8.742,0.093 -11.906,0.249 v 0 c -5.586,0.275 -8.589,0.549 -8.614,-0.37 v 0 c 0,-1.799 1.77,-2.389 29.269,-1.06 v 0 c 12.151,0.591 21.461,1.591 26.721,2.261 v 0 c 0.083,0.017 0.15,0.084 0.168,0.168 v 0 c 0.002,0.011 0.004,0.021 0.004,0.031 v 0 0.031 c -0.006,0.095 -0.075,0.178 -0.172,0.199 v 0 c -9.3,-1.09 -29.411,-1.44 -35.47,-1.509" /></g></g></g></g><g
       id="g364"><g
         id="g366"><g
           id="g372"><g
             id="g374"><path
               id="path384"
               style="fill:url(#linearGradient382);stroke:none"
               d="m 114.493,116.362 c 0,-0.6 0.621,-0.581 1.22,0 v 0 c 0.6,0.579 1.51,1.91 2.68,2.049 v 0 c 1.171,-0.139 2.001,-1.399 2.68,-2.049 v 0 c 0.68,-0.65 1.22,-0.571 1.22,0 v 0 c -2.339,1 -1.689,9.36 -3.9,9.49 v 0 c -2.209,-0.13 -1.56,-8.49 -3.9,-9.49" /></g></g></g></g><g
       id="g386"><g
         id="g388"><g
           id="g394"><g
             id="g396"><path
               id="path406"
               style="fill:url(#linearGradient404);stroke:none"
               d="m 124.093,130.762 c -1.888,0.257 -3.793,0.398 -5.7,0.419 v 0 c -1.898,-0.039 -3.791,-0.196 -5.67,-0.469 v 0 c -3.269,3.59 -9.139,1.279 -7.169,-1.9 v 0 c 0.89,-1.791 3.829,-0.771 3.469,1.199 v 0 c 1.42,-0.29 2.53,-1.749 3,-3.549 v 0 c 1,-3.641 -2.079,-7.36 -4.69,-8.26 v 0 l -0.62,-0.1 c -4.579,3.479 -10.069,8.219 -16.66,7 v 0 c -2.72,-0.481 -5.399,-2.571 -5.7,-5.57 v 0 c -0.79,-8.1 10.141,-7.84 9.5,-0.681 v 0 c -0.22,2.53 -3.72,2.46 -3.72,-0.74 v 0 c 0.09,-0.999 -1.489,-1.839 -2.06,-0.589 v 0 c -0.751,1.532 -0.119,3.383 1.414,4.135 v 0 c 0.122,0.06 0.247,0.111 0.376,0.154 v 0 c 4.77,1 11.831,-6 17.291,-7.529 v 0 c -1.05,-0.14 -2.85,-0.301 -3.881,-0.481 v 0 c -1.614,0.457 -3.073,1.346 -4.22,2.571 v 0 c -1.59,0.92 0,-1.69 1.001,-3.18 v 0 c -22.5,-4.72 -38.741,-18.05 -38.741,-33.771 v 0 c 0,-19.689 25.47,-35.65 56.89,-35.65 v 0 h 0.38 c 31.42,0 56.89,16.001 56.89,35.65 v 0 c 0,15.721 -16.24,29.061 -38.779,33.801 v 0 c 1,1.479 2.62,4.089 1,3.18 v 0 c -1.147,-1.224 -2.606,-2.114 -4.221,-2.571 v 0 c -1,0.18 -2.819,0.34 -3.88,0.481 v 0 c 5.511,1.549 12.56,8.519 17.361,7.519 v 0 c 1.614,-0.55 2.478,-2.306 1.928,-3.921 v 0 c -0.045,-0.13 -0.098,-0.256 -0.159,-0.378 v 0 c -0.579,-1.25 -2.159,-0.42 -2.06,0.589 v 0 c 0,3.19 -3.49,3.27 -3.72,0.74 v 0 c -0.64,-7.159 10.291,-7.419 9.501,0.681 v 0 c -0.3,2.999 -3,5.069 -5.681,5.609 v 0 c -6.579,1.18 -12.069,-3.559 -16.659,-6.999 v 0 l -0.62,0.1 c -2.611,0.9 -5.691,4.63 -4.691,8.259 v 0 c 0.45,1.8 1.561,3.261 3.001,3.551 v 0 c -0.36,-2.001 2.579,-3.001 3.469,-1.2 v 0 c 1.282,2.032 -0.683,3.715 -3.12,3.715 v 0 c -1.364,0 -2.876,-0.527 -4.05,-1.815 m -16.68,-13.23 c 4.6,1.779 7.701,5.47 7.1,9.4 v 0 c -0.15,0.776 -0.402,1.53 -0.749,2.24 v 0 c 1.51,0.414 3.064,0.651 4.629,0.71 v 0 c 1.566,-0.059 3.119,-0.296 4.631,-0.71 v 0 c -0.348,-0.71 -0.6,-1.464 -0.75,-2.24 v 0 c -0.601,-3.93 2.499,-7.621 7.099,-9.4 v 0 c -1.49,-1.105 -3.129,-1.994 -4.87,-2.641 v 0 c -1.946,0.127 -3.92,0.19 -5.92,0.19 v 0 l -0.19,-0.01 h -0.19 c -1.999,0 -3.972,-0.063 -5.92,-0.19 v 0 c -1.74,0.649 -3.379,1.542 -4.87,2.651 M 64.103,79.511 c 0,18.4 24.22,33.31 54.1,33.31 v 0 h 0.38 c 29.88,0 54.101,-14.91 54.101,-33.31 v 0 c 0,-18.399 -24.221,-33.309 -54.101,-33.309 v 0 h -0.19 -0.19 c -29.88,0 -54.1,14.91 -54.1,33.309" /></g></g></g></g><g
       id="g408"><g
         id="g410"><g
           id="g416"><g
             id="g418"><path
               id="path428"
               style="fill:url(#linearGradient426);stroke:none"
               d="M 41.324,25.682 V 0.461 h 14.069 v 2.73 H 44.614 v 22.491 z m 90.059,-7.971 c -0.852,-0.624 -1.555,-1.43 -2.059,-2.359 v 0 h -0.071 c -0.737,2.181 -2.788,3.643 -5.09,3.63 v 0 c -2.388,0.075 -4.612,-1.217 -5.729,-3.33 v 0 h -0.11 l -0.15,2.92 h -2.88 c 0.08,-1.501 0.15,-3 0.15,-4.901 v 0 -13.21 h 3.219 v 10.92 c -0.011,2.501 1.857,4.61 4.34,4.901 v 0 c 2.51,0 3.781,-2.06 3.781,-4.941 v 0 -10.889 h 3.219 v 11.23 c 0.007,0.56 0.095,1.115 0.26,1.65 v 0 c 0.555,1.723 2.122,2.919 3.931,2.999 v 0 c 2.619,0 3.929,-2.059 3.929,-5.58 v 0 -10.26 h 3.22 v 10.63 c 0.021,6.29 -3.54,7.861 -5.97,7.861 v 0 h 0.01 c -0.09,0.004 -0.18,0.006 -0.269,0.006 v 0 c -1.348,0 -2.661,-0.447 -3.731,-1.277 m -52.719,-2.1 h -0.071 l -0.189,3.001 h -2.91 c 0.11,-1.5 0.149,-3.001 0.149,-4.9 v 0 -13.211 h 3.31 v 10.88 c -0.008,0.519 0.066,1.035 0.221,1.53 v 0 c 0.593,1.959 2.374,3.317 4.42,3.371 v 0 c 3.109,0 4.189,-2.471 4.189,-5.39 v 0 -10.44 h 3.291 v 10.82 c -0.011,6.26 -3.9,7.71 -6.411,7.71 v 0 c -0.06,0.001 -0.12,0.002 -0.179,0.002 v 0 c -2.4,0 -4.623,-1.283 -5.82,-3.373 m 15.72,-6.249 c 0,-5.73 3.81,-9.321 8.68,-9.321 v 0 c 4.319,0 9,2.92 9,9.66 v 0 h -0.01 c 0,5.501 -3.51,9.281 -8.67,9.281 v 0 c -5.001,0 -9,-3.561 -9,-9.62 m 3.34,0.15 c 0,3.409 1.64,7 5.539,7 v 0 c 3.9,0 5.431,-3.851 5.431,-6.921 v 0 c 0,-4.119 -2.361,-7.059 -5.54,-7.079 v 0 c -3.18,0 -5.43,3 -5.43,7 m -41.4,-0.3 c 0,-5.42 3.369,-9.131 8.909,-9.131 v 0 c 2.08,-0.045 4.144,0.351 6.061,1.16 v 0 L 70.693,3.602 C 69.115,2.928 67.408,2.606 65.694,2.661 v 0 c -3.301,0 -6.11,1.831 -6.181,6.251 v 0 h 12.69 c 0.087,0.508 0.124,1.024 0.11,1.54 v 0 c 0,3.33 -1.54,8.53 -7.46,8.53 v 0 c -5.269,0 -8.529,-4.351 -8.529,-9.77 m 8.279,7.409 c 3.67,0 4.53,-3.25 4.53,-5.349 v 0 h -9.579 c 0.259,2.279 1.679,5.349 5.049,5.349 m 81.14,0.771 0.751,-2.21 c 1.419,0.897 3.069,1.366 4.749,1.349 v 0 c 3.71,0.041 4.12,-2.69 4.12,-4.19 v 0 -0.369 c -7,0.029 -10.89,-2.36 -10.89,-6.74 v 0 c -0.001,-0.146 0.004,-0.29 0.015,-0.435 v 0 c 0.209,-2.841 2.684,-4.975 5.525,-4.766 v 0 c 2.177,-0.054 4.243,0.953 5.54,2.701 v 0 h 0.11 l 0.3,-2.28 h 3 c -0.19,1.438 -0.276,2.888 -0.26,4.34 v 0 l -0.039,6.759 c 0,3.631 -1.34,7.41 -6.92,7.41 v 0 c -0.046,0.001 -0.091,0.001 -0.136,0.001 v 0 c -2.057,0 -4.081,-0.541 -5.865,-1.57 m 4.693,-14.915 c -1.59,0.141 -2.764,1.545 -2.622,3.134 v 0 c 0,3.52 4.08,4.161 7.67,4.081 v 0 -3.22 c 0,-0.34 -0.051,-0.677 -0.15,-1 v 0 c -0.678,-1.858 -2.474,-3.068 -4.451,-3 v 0 c -0.064,-0.004 -0.129,-0.007 -0.194,-0.007 v 0 c -0.085,0 -0.169,0.004 -0.253,0.012 m 21.277,12.535 h 0.01 -0.109 l -0.16,3.52 h -2.88 c 0.11,-1.68 0.149,-3.52 0.149,-5.651 v 0 -12.46 h 3.29 v 9.69 c -0.002,0.513 0.035,1.024 0.11,1.53 v 0 c 0.45,2.431 2.1,4.19 4.42,4.19 v 0 c 0.375,-10e-4 0.748,-0.024 1.121,-0.069 v 0 3.109 c -0.298,0.044 -0.599,0.068 -0.901,0.07 v 0 c -2.353,-0.088 -4.386,-1.67 -5.05,-3.929 m 20.37,3.52 V 7.531 c 0.008,-0.574 -0.094,-1.144 -0.299,-1.679 v 0 c -0.706,-1.788 -2.419,-2.973 -4.34,-3 v 0 c -3.001,0 -4.001,2.359 -4.001,5.8 v 0 9.88 h -3.289 V 7.942 c 0,-6.33 3.41,-7.941 6.25,-7.941 v 0 C 186.422,0.001 186.441,0 186.46,0 v 0 h 0.175 c 2.376,0.031 4.57,1.306 5.769,3.371 v 0 h 0.069 l 0.19,-2.999 h 2.92 c -0.179,1.499 -0.219,3.16 -0.219,5.06 v 0 h 0.009 v 13.1 z M 163.944,4.751 c -1.232,0.014 -2.242,-0.975 -2.255,-2.206 v 0 c 0,-0.05 0.001,-0.102 0.005,-0.153 v 0 c -0.089,-1.212 0.822,-2.267 2.034,-2.354 v 0 c 0.045,-0.005 0.09,-0.006 0.136,-0.007 v 0 c 1.219,-0.025 2.229,0.945 2.254,2.165 v 0 c 0.001,0.065 -0.001,0.131 -0.004,0.196 v 0 c 0.104,1.199 -0.782,2.256 -1.982,2.361 v 0 c -0.059,0.005 -0.119,0.008 -0.179,0.009 v 0 z" /></g></g></g></g></g></svg>