<?xml version="1.0" encoding="UTF-8" standalone="no"?>
<svg
   xmlns:dc="http://purl.org/dc/elements/1.1/"
   xmlns:cc="http://creativecommons.org/ns#"
   xmlns:rdf="http://www.w3.org/1999/02/22-rdf-syntax-ns#"
   xmlns:svg="http://www.w3.org/2000/svg"
   xmlns="http://www.w3.org/2000/svg"
   viewBox="0 0 518.41998 518.45465"
   height="518.45465"
   width="518.41998"
   xml:space="preserve"
   id="svg2"
   version="1.1"><metadata
     id="metadata8"><rdf:RDF><cc:Work
         rdf:about=""><dc:format>image/svg+xml</dc:format><dc:type
           rdf:resource="http://purl.org/dc/dcmitype/StillImage" /></cc:Work></rdf:RDF></metadata><defs
     id="defs6"><clipPath
       id="clipPath18"
       clipPathUnits="userSpaceOnUse"><path
         id="path16"
         d="M 0,388.841 H 388.815 V 0 H 0 Z" /></clipPath></defs><g
     transform="matrix(1.3333333,0,0,-1.3333333,0,518.45467)"
     id="g10"><g
       id="g12"><g
         clip-path="url(#clipPath18)"
         id="g14"><g
           transform="translate(239.4004,319.6408)"
           id="g20"><path
             id="path22"
             style="fill:#000000;fill-opacity:1;fill-rule:nonzero;stroke:none"
             d="m 0,0 c 22.699,-22.7 35.199,-52.9 35.199,-85 0,-32.1 -12.5,-62.3 -35.199,-85 -22.7,-22.7 -52.9,-35.2 -85,-35.2 -32.101,0 -62.3,12.5 -85,35.2 -22.7,22.7 -35.2,52.9 -35.2,85 0,32.1 12.5,62.3 35.2,85 22.7,22.7 52.899,35.2 85,35.2 32.1,0 62.3,-12.5 85,-35.2 m 43.1,-166.8 c 15,23.6 23.799,51.6 23.799,81.7 C 66.899,-1 -1.2,67.2 -85.2,67.2 c -84.1,0 -152.2,-68.2 -152.2,-152.3 0,-84.1 68.1,-152.299 152.1,-152.299 30.5,0 58.9,9 82.699,24.399 l 6.901,4.8 108.599,-108.6 33.701,34.3 -108.5,108.601 z" /></g><g
           transform="translate(239.4004,319.6408)"
           id="g24"><path
             id="path26"
             style="fill:none;stroke:#000000;stroke-width:4;stroke-linecap:butt;stroke-linejoin:miter;stroke-miterlimit:10;stroke-dasharray:none;stroke-opacity:1"
             d="m 0,0 c 22.699,-22.7 35.199,-52.9 35.199,-85 0,-32.1 -12.5,-62.3 -35.199,-85 -22.7,-22.7 -52.9,-35.2 -85,-35.2 -32.101,0 -62.3,12.5 -85,35.2 -22.7,22.7 -35.2,52.9 -35.2,85 0,32.1 12.5,62.3 35.2,85 22.7,22.7 52.899,35.2 85,35.2 32.1,0 62.3,-12.5 85,-35.2 z m 43.1,-166.8 c 15,23.6 23.799,51.6 23.799,81.7 C 66.899,-1 -1.2,67.2 -85.2,67.2 c -84.1,0 -152.2,-68.2 -152.2,-152.3 0,-84.1 68.1,-152.299 152.1,-152.299 30.5,0 58.9,9 82.699,24.399 l 6.901,4.8 108.599,-108.6 33.701,34.3 -108.5,108.601 z" /></g></g></g></g></svg>