<?xml version="1.0" encoding="UTF-8" standalone="no"?>
<svg
   xmlns:dc="http://purl.org/dc/elements/1.1/"
   xmlns:cc="http://creativecommons.org/ns#"
   xmlns:rdf="http://www.w3.org/1999/02/22-rdf-syntax-ns#"
   xmlns:svg="http://www.w3.org/2000/svg"
   xmlns="http://www.w3.org/2000/svg"
   viewBox="0 0 10.430667 12.739987"
   height="12.739987"
   width="10.430667"
   xml:space="preserve"
   id="svg2"
   version="1.1"><metadata
     id="metadata8"><rdf:RDF><cc:Work
         rdf:about=""><dc:format>image/svg+xml</dc:format><dc:type
           rdf:resource="http://purl.org/dc/dcmitype/StillImage" /></cc:Work></rdf:RDF></metadata><defs
     id="defs6"><clipPath
       id="clipPath18"
       clipPathUnits="userSpaceOnUse"><path
         id="path16"
         d="M 0,9.555 H 7.823 V 0 H 0 Z" /></clipPath></defs><g
     transform="matrix(1.3333333,0,0,-1.3333333,0,12.739987)"
     id="g10"><g
       id="g12"><g
         clip-path="url(#clipPath18)"
         id="g14"><g
           transform="translate(3.866,1.5527)"
           id="g20"><path
             id="path22"
             style="fill:#ba9a64;fill-opacity:1;fill-rule:nonzero;stroke:none"
             d="M 0,0 C -0.406,0 -0.729,0.062 -0.975,0.184 -1.238,0.325 -1.42,0.467 -1.522,0.608 -1.765,1.056 -1.898,1.289 -1.918,1.309 -1.999,1.552 -2.12,1.755 -2.282,1.917 -2.485,2.058 -2.688,2.13 -2.892,2.13 -3.176,2.13 -3.409,2.039 -3.592,1.856 -3.775,1.674 -3.866,1.46 -3.866,1.217 c 0,-0.386 0.144,-0.801 0.428,-1.247 0.263,-0.406 0.629,-0.741 1.096,-1.004 0.648,-0.346 1.45,-0.519 2.404,-0.519 0.79,0 1.49,0.122 2.1,0.366 0.609,0.284 1.055,0.638 1.339,1.064 0.304,0.468 0.456,0.976 0.456,1.522 0,0.446 -0.08,0.852 -0.242,1.217 C 3.552,2.92 3.299,3.194 2.953,3.436 2.588,3.661 2.203,3.843 1.797,3.984 1.108,4.188 0.619,4.32 0.336,4.38 0.193,4.401 0.016,4.435 -0.197,4.487 c -0.213,0.05 -0.35,0.085 -0.41,0.106 -0.243,0.08 -0.416,0.152 -0.518,0.212 -0.163,0.081 -0.294,0.193 -0.396,0.336 -0.103,0.1 -0.152,0.234 -0.152,0.396 0,0.243 0.142,0.455 0.426,0.639 0.265,0.203 0.649,0.305 1.156,0.305 0.508,0 0.884,-0.092 1.127,-0.273 C 1.299,5.983 1.492,5.73 1.613,5.446 1.776,5.182 1.908,5 2.009,4.899 2.171,4.776 2.364,4.715 2.587,4.715 2.851,4.715 3.085,4.817 3.286,5.021 3.47,5.202 3.561,5.425 3.561,5.69 3.561,5.892 3.489,6.157 3.347,6.481 3.185,6.724 2.971,6.967 2.708,7.21 2.424,7.434 2.049,7.627 1.581,7.789 1.096,7.932 0.577,8.002 0.029,8.002 c -0.73,0 -1.38,-0.11 -1.948,-0.335 -0.566,-0.2 -1.003,-0.505 -1.307,-0.911 -0.305,-0.406 -0.457,-0.872 -0.457,-1.4 0,-0.527 0.143,-0.984 0.426,-1.37 0.346,-0.405 0.73,-0.688 1.156,-0.851 C -1.613,2.911 -1.025,2.729 -0.335,2.587 -0.214,2.566 -0.065,2.531 0.106,2.481 0.278,2.43 0.43,2.39 0.563,2.358 0.694,2.33 0.801,2.304 0.882,2.283 1.166,2.181 1.399,2.04 1.581,1.856 1.764,1.715 1.855,1.502 1.855,1.217 1.855,0.871 1.693,0.588 1.369,0.364 1.005,0.121 0.548,0 0,0" /></g></g></g></g></svg>
