<?xml version="1.0" encoding="UTF-8" standalone="no"?>
<svg
   xmlns:dc="http://purl.org/dc/elements/1.1/"
   xmlns:cc="http://creativecommons.org/ns#"
   xmlns:rdf="http://www.w3.org/1999/02/22-rdf-syntax-ns#"
   xmlns:svg="http://www.w3.org/2000/svg"
   xmlns="http://www.w3.org/2000/svg"
   viewBox="0 0 10.670933 13.352933"
   height="13.352933"
   width="10.670933"
   xml:space="preserve"
   id="svg2"
   version="1.1"><metadata
     id="metadata8"><rdf:RDF><cc:Work
         rdf:about=""><dc:format>image/svg+xml</dc:format><dc:type
           rdf:resource="http://purl.org/dc/dcmitype/StillImage" /></cc:Work></rdf:RDF></metadata><defs
     id="defs6"><clipPath
       id="clipPath18"
       clipPathUnits="userSpaceOnUse"><path
         id="path16"
         d="M 0,10.015 H 8.003 V 0 H 0 Z" /></clipPath></defs><g
     transform="matrix(1.3333333,0,0,-1.3333333,0,13.352933)"
     id="g10"><g
       id="g12"><g
         clip-path="url(#clipPath18)"
         id="g14"><g
           transform="translate(4.6604,3.0008)"
           id="g20"><path
             id="path22"
             style="fill:#c1a067;fill-opacity:1;fill-rule:nonzero;stroke:none"
             d="M 0,0 C 0.28,0 0.82,0.56 1.1,0.59 1.378,0.613 1.654,0.527 1.87,0.35 L 2.609,-0.25 3.06,-0.62 C 3.384,-0.885 3.438,-1.36 3.18,-1.69 L 2.34,-2.87 C 2.279,-2.958 2.177,-3.008 2.07,-3 c -3.853,0.416 -6.763,3.685 -6.73,7.56 -0.002,0.692 0.089,1.382 0.27,2.05 0.02,0.065 0.073,0.115 0.14,0.13 L -2.66,7 C -2.265,7.078 -1.881,6.82 -1.803,6.425 -1.802,6.42 -1.801,6.415 -1.8,6.41 l 0.14,-0.6 0.18,-1 c 0.053,-0.283 0,-0.575 -0.15,-0.82 -0.15,-0.25 -0.86,-0.5 -1,-0.74 0.4,-1.414 1.337,-2.616 2.61,-3.35 l 0,0.1 z" /></g></g></g></g></svg>
