<?xml version="1.0" encoding="UTF-8" standalone="no"?>
<svg
   xmlns:dc="http://purl.org/dc/elements/1.1/"
   xmlns:cc="http://creativecommons.org/ns#"
   xmlns:rdf="http://www.w3.org/1999/02/22-rdf-syntax-ns#"
   xmlns:svg="http://www.w3.org/2000/svg"
   xmlns="http://www.w3.org/2000/svg"
   viewBox="0 0 117.33333 117.33333"
   height="117.33333"
   width="117.33333"
   xml:space="preserve"
   id="svg2"
   version="1.1"><metadata
     id="metadata8"><rdf:RDF><cc:Work
         rdf:about=""><dc:format>image/svg+xml</dc:format><dc:type
           rdf:resource="http://purl.org/dc/dcmitype/StillImage" /></cc:Work></rdf:RDF></metadata><defs
     id="defs6"><clipPath
       id="clipPath18"
       clipPathUnits="userSpaceOnUse"><path
         id="path16"
         d="M 0,88 H 88 V 0 H 0 Z" /></clipPath></defs><g
     transform="matrix(1.3333333,0,0,-1.3333333,0,117.33333)"
     id="g10"><g
       id="g12"><g
         clip-path="url(#clipPath18)"
         id="g14"><g
           transform="translate(42.5,44)"
           id="g20"><path
             id="path22"
             style="fill:#c1a067;fill-opacity:1;fill-rule:nonzero;stroke:none"
             d="M 0,0 C 0,0.8 0.7,1.5 1.5,1.5 2.3,1.5 3,0.8 3,0 3,-0.8 2.3,-1.5 1.5,-1.5 0.7,-1.5 0,-0.8 0,0 m 41.5,4 c -2.2,0 -4,-1.8 -4,-4 0,-6.3 -1.7,-12.5 -4.8,-18 C 29.5,-23.5 25,-28 19.5,-31.2 14,-34.3 7.8,-36 1.5,-36 c -6.3,0 -12.5,1.7 -18,4.8 -5.5,3.2 -10,7.7 -13.2,13.2 -3.1,5.5 -4.8,11.7 -4.8,18 0,6.3 1.7,12.5 4.8,18 3.2,5.5 7.7,10 13.2,13.2 4.3,2.5 9.1,4 14,4.6 V 0 c 0,-2.2 1.8,-4 4,-4 h 25 c 2.2,0 4,1.8 4,4 0,2.2 -1.8,4 -4,4 h -21 v 36 c 0,2.2 -1.8,4 -4,4 -7.7,0 -15.3,-2 -22,-5.9 -6.7,-3.9 -12.2,-9.4 -16.1,-16.1 -3.9,-6.7 -5.9,-14.3 -5.9,-22 0,-7.7 2,-15.3 5.9,-22 3.9,-6.7 9.4,-12.2 16.1,-16.1 6.7,-3.9 14.3,-5.9 22,-5.9 7.7,0 15.3,2 22,5.9 6.7,3.9 12.2,9.4 16.1,16.1 3.9,6.7 5.9,14.3 5.9,22 0,2.2 -1.8,4 -4,4" /></g><g
           transform="translate(62.5,76)"
           id="g24"><path
             id="path26"
             style="fill:#c1a067;fill-opacity:1;fill-rule:nonzero;stroke:none"
             d="m 0,0 c 0.5,-0.3 1,-0.4 1.5,-0.4 1.1,0 2.1,0.6 2.6,1.5 C 4.5,1.8 4.6,2.6 4.4,3.4 4.2,4.2 3.7,4.8 3,5.2 2.5,5.5 2,5.6 1.5,5.6 0.4,5.6 -0.6,5 -1.1,4.1 -1.5,3.4 -1.6,2.6 -1.4,1.8 -1.2,1.1 -0.7,0.4 0,0" /></g><g
           transform="translate(78.5996,61)"
           id="g28"><path
             id="path30"
             style="fill:#c1a067;fill-opacity:1;fill-rule:nonzero;stroke:none"
             d="M 0,0 C 0.5,0 1,0.1 1.5,0.4 2.9,1.2 3.4,3.1 2.601,4.5 2.101,5.4 1.101,6 0,6 -0.5,6 -1,5.9 -1.5,5.6 -2.199,5.2 -2.699,4.6 -2.899,3.8 -3.1,3 -3,2.2 -2.6,1.5 -2,0.6 -1,0 0,0" /></g></g></g></g></svg>
