<?xml version="1.0" encoding="UTF-8" standalone="no"?>
<svg
   xmlns:dc="http://purl.org/dc/elements/1.1/"
   xmlns:cc="http://creativecommons.org/ns#"
   xmlns:rdf="http://www.w3.org/1999/02/22-rdf-syntax-ns#"
   xmlns:svg="http://www.w3.org/2000/svg"
   xmlns="http://www.w3.org/2000/svg"
   viewBox="0 0 29.996668 30.812"
   height="30.812"
   width="29.996668"
   xml:space="preserve"
   id="svg2"
   version="1.1"><metadata
     id="metadata8"><rdf:RDF><cc:Work
         rdf:about=""><dc:format>image/svg+xml</dc:format><dc:type
           rdf:resource="http://purl.org/dc/dcmitype/StillImage" /></cc:Work></rdf:RDF></metadata><defs
     id="defs6"><clipPath
       id="clipPath18"
       clipPathUnits="userSpaceOnUse"><path
         id="path16"
         d="M 0,23.109 H 22.497 V 0 H 0 Z" /></clipPath></defs><g
     transform="matrix(1.3333333,0,0,-1.3333333,0,30.812)"
     id="g10"><g
       id="g12"><g
         clip-path="url(#clipPath18)"
         id="g14"><g
           transform="translate(10.7287,21.8998)"
           id="g20"><path
             id="path22"
             style="fill:#000000;fill-opacity:1;fill-rule:nonzero;stroke:none"
             d="m 0,0 c 2.5,-0.1 4.3,-0.8 6.1,-2.2 2.2,-1.6 3.5,-3.9 4,-6.7 0.1,-0.8 0.2,-1.4 0.2,-2.3 0,-0.699 0.1,-0.9 0.2,-1.1 0.1,-0.2 0.3,-0.3 0.4,-0.3 0.1,0 0.2,0 0.2,0.1 0.2,0.101 0.3,0.4 0.2,0.7 0,0.1 -0.1,0.2 -0.1,0.7 0,1 -0.1,1.6 -0.3,2.4 -0.6,3.1 -2,5.6 -4.4,7.3 C 4.5,0.1 2.5,0.8 -0.2,1 -1,1 -1.1,1.1 -1.1,1.1 -1.3,1.3 -1.6,1.2 -1.8,1 -1.7,0.8 -1.7,0.5 -1.5,0.3 -1.1,0.1 -0.8,0 0,0" /></g><g
           transform="translate(17.1291,15.1)"
           id="g24"><path
             id="path26"
             style="fill:#000000;fill-opacity:1;fill-rule:nonzero;stroke:none"
             d="m 0,0 c 0.5,-0.9 0.8,-2 0.8,-3.1 0,-0.7 0.099,-1.3 0.7,-1.7 0.1,0 0.1,-0.1 0.199,-0.1 0.2,0 0.401,0.1 0.401,0.3 0.099,0.2 0,0.5 -0.201,0.7 -0.099,0 -0.2,0.1 -0.2,0.8 0,1.3 -0.3,2.6 -0.899,3.6 -0.601,1.2 -1.601,2.2 -2.7,2.8 -1,0.6 -2.401,1 -3.701,1.1 -0.399,0 -0.5,0.1 -0.5,0.2 C -6.3,4.8 -6.601,4.8 -6.8,4.6 -7,4.4 -7,4.1 -6.8,3.9 -6.601,3.6 -6.101,3.5 -5.7,3.5 -4.5,3.4 -3.301,3 -2.4,2.5 -1.4,1.9 -0.601,1.1 0,0" /></g><g
           transform="translate(15.6291,12.8002)"
           id="g28"><path
             id="path30"
             style="fill:#000000;fill-opacity:1;fill-rule:nonzero;stroke:none"
             d="m 0,0 c -0.101,0.7 -0.2,1.2 -0.4,1.6 -0.5,1 -1.3,1.6 -2.701,1.7 -0.5,0.1 -0.5,0.1 -0.599,0.2 C -3.9,3.7 -4.2,3.8 -4.4,3.6 -4.601,3.4 -4.601,3.1 -4.5,2.9 -4.2,2.6 -3.9,2.5 -3.301,2.4 -2.301,2.3 -1.7,1.9 -1.4,1.2 -1.2,0.8 -1.101,0.4 -1.101,-0.1 -1,-0.6 -0.9,-1 -0.601,-1.2 c 0.101,-0.1 0.201,-0.1 0.3,-0.1 0.2,0 0.301,0.1 0.401,0.2 0.2,0.2 0.099,0.5 -0.1,0.7 0.1,0 0,0 0,0.4" /></g><g
           transform="translate(22.0285,5.8002)"
           id="g32"><path
             id="path34"
             style="fill:#000000;fill-opacity:1;fill-rule:nonzero;stroke:none"
             d="M 0,0 C -0.3,0.3 -1.899,1.6 -2.6,2.1 -3.2,2.5 -4,3 -4.5,3.2 -5.1,3.5 -5.8,3.6 -6.399,3.399 -6.899,3.2 -7.1,3 -7.7,2.3 -8,2 -8.2,1.7 -8.2,1.6 -8.2,1.6 -8.3,1.5 -8.399,1.5 -8.7,1.399 -9.2,1.5 -10.1,1.899 -10.9,2.3 -11.5,2.8 -12.3,3.5 c -0.7,0.6 -1.3,1.4 -1.7,2 -0.5,0.8 -0.8,1.8 -0.8,2.2 0,0.2 0,0.5 0.1,0.6 l 0.1,0.1 c 0.1,0.1 0.3,0.2 0.5,0.4 0.9,0.7 1.2,1 1.3,1.5 0.1,0.5 0,1.1 -0.4,1.9 -0.6,1.2 -2.5,3.8 -3.3,4.3 -0.1,0.1 -0.4,0.2 -0.5,0.3 -0.4,0.1 -0.9,0.1 -1.2,0.1 -0.4,-0.1 -0.9,-0.4 -1.9,-1.1 -0.5,-0.4 -1.3,-1.2 -1.6,-1.6 -0.5,-1 -0.4,-1.8 0.1,-3.1 0.7,-1.8 1.6,-3.6 2.7,-5.4 0.2,-0.3 0.3,-0.5 0.5,-0.8 0.2,-0.3 0.4,-0.501 0.6,-0.8 1.8,-2.5 4,-4.6 6.5,-6.3 l 0.1,-0.1 c 0.1,-0.1 0.3,-0.2 0.4,-0.301 l 0.3,-0.199 c 0.2,-0.1 0.3,-0.2 0.5,-0.301 L -7.2,-4.7 C -7,-4.8 -6.8,-4.9 -6.6,-5 l 0.3,-0.101 C -6,-5.2 -5.7,-5.4 -5.399,-5.5 -4.8,-5.7 -4.5,-5.8 -4.1,-5.8 h 0.201 c 0.699,0 1.299,0.3 2,0.8 C -1.1,-4.4 0,-3.101 0.3,-2.3 0.601,-1.4 0.5,-0.601 0,0" /></g></g></g></g></svg>